<?xml version="1.0" encoding="utf-8"?>
<!-- Generator: Adobe Illustrator 21.0.2, SVG Export Plug-In . SVG Version: 6.00 Build 0)  -->
<svg version="1.1" id="Layer_1" xmlns="http://www.w3.org/2000/svg" xmlns:xlink="http://www.w3.org/1999/xlink" x="0px" y="0px"
	 viewBox="0 0 384 384" style="enable-background:new 0 0 384 384;" xml:space="preserve">
<g>
	<path d="M16.9,193.3c0-48,0.1-96,0-144c0-15.9,6.2-28.3,19.9-36.7C43.4,8.5,50.8,7,58.6,7c58.5,0,117,0,175.5,0
		c31.5,0,63-0.1,94.5,0c20.3,0.1,36.5,13.6,40,33.6c0.4,2.3,0.5,4.7,0.5,7.1c0,23,0.1,46,0,69c-0.1,20.3-13.3,36.1-32.8,39.9
		c-3,0.6-6.2,0.7-9.3,0.7c-9,0.1-18,0-27,0c-5.9,0-8.4-1.9-8.3-6.1c0.1-4.1,2.5-5.9,8.2-5.9c9.1,0,18.2,0,27.4,0
		c18.5-0.1,29.9-11.5,29.9-30c0-22.1,0-44.2,0-66.4c0-18.4-11.6-30-30-29.8c-5.8,0.1-11.8,0.1-17.3,1.7c-16,4.5-24.3,15.8-26.1,32.1
		c-0.8,7.4-1.4,14.9-1.4,22.4c-0.1,87.5-0.1,175-0.1,262.5c0,18.5-9.8,33.5-26.3,39.3c-4.6,1.6-9.7,2.5-14.6,2.5
		c-61.1,0.2-122.2,0.2-183.4,0.1c-22.6,0-39.7-16.4-40.7-39c-0.3-7.5-0.1-15-0.1-22.5C16.9,276.5,16.9,234.9,16.9,193.3z M288,19.2
		c-1.6-0.1-2-0.1-2.5-0.1c-76,0-152,0-227.9,0C40.7,19.1,29,31,29,48.2c-0.1,96.7-0.1,193.5,0,290.2c0,17.6,11.9,29.3,29.5,29.3
		c60.6,0,121.2,0,181.8,0c3,0,6-0.3,8.9-1c13-3.3,20.8-14.2,20.8-28.8c0-83,0-166,0-248.9c0-7.1-0.1-14.3,0.2-21.4
		C271,49.7,272.8,32.4,288,19.2z"/>
	<path d="M175,120.1c0,1.9,0,3.4,0,4.9c-0.4,10.2-7.2,17.8-17.3,18.9c-3.8,0.4-7.8,0.4-11.6,0c-10.2-1.2-17-9-17.2-19.3
		c0-1.3,0-2.7,0-4.2c-2.9-0.2-5.3-0.2-7.8-0.6c-9.5-1.6-16-9.2-16.2-18.7c-0.1-2.5,0-5,0-7.5c0.1-11.4,8.3-19.5,19.7-19.7
		c1.2,0,2.5,0,4.3,0c0-1.6,0-3.1,0-4.5c0.2-10.2,6.9-18,16.9-19.2c4.1-0.5,8.3-0.5,12.3,0c9.7,1.2,16.4,8.7,16.8,18.5
		c0.1,1.6,0,3.2,0,4.9c3.1,0.3,5.9,0.3,8.5,0.8c8.9,1.7,15,8.8,15.4,17.8c0.1,2.9,0.1,5.7,0.1,8.6c-0.3,11.2-8.3,19.1-19.6,19.4
		C178.1,120.1,176.9,120.1,175,120.1z M140.9,108.1c0,4.6,0,8.7,0,12.8c0,9.7,1.6,11.2,11.4,11.2c0.4,0,0.7,0,1.1,0
		c7.4,0,9.6-2.2,9.6-9.7c0-4.7,0-9.4,0-14.3c4.2,0,7.8,0,11.4,0c11.5,0,12.6-1.1,12.5-12.7c0-7.4-2.2-9.6-9.6-9.6
		c-4.7,0-9.4,0-14.3,0c0-4.1,0-7.6,0-11c0-12-1.1-13-13-13c-6.7,0.1-9,2.4-9.1,9c0,4.9,0,9.9,0,15c-3.8,0-7.1,0-10.3,0
		c-13,0-13.9,0.9-13.7,13.8c0.1,5.9,2.6,8.4,8.5,8.5C130.4,108.2,135.4,108.1,140.9,108.1z"/>
	<path d="M149.3,174.2c25.1,0,50.2,0,75.3,0c4.6,0,7.3,2.5,7,6.4c-0.3,3.1-2,5.1-5.2,5.5c-1.2,0.2-2.5,0.1-3.7,0.1
		c-49,0-97.9,0-146.9,0c-0.7,0-1.5,0-2.2,0c-4.2-0.2-6.6-2.5-6.6-6.1c0-3.6,2.5-5.9,6.7-5.9c23.2,0,46.5,0,69.7,0
		C145.3,174.2,147.3,174.2,149.3,174.2z"/>
	<path d="M232.4,291.1c-2.1,2.3-3.2,4.6-5,5.2c-1.7,0.6-4.2-0.1-6.1-0.7c-1-0.3-1.6-2.3-2.6-2.5c-2.1-0.6-4.9-1.4-6.5-0.6
		c-1.6,0.9-3.2,3.8-3.1,5.6c0.2,1.8,2.3,3.7,4,5.2c0.8,0.7,2.4,0.5,3.6,0.7c8.2,0.9,14.5,6.7,16,14.9c1.4,7.6-2.4,15.3-9.6,18.9
		c-2.2,1.1-2.7,2.3-2.7,4.6c0.1,4.7-2.4,7.4-6.2,7.2c-3.7-0.1-5.9-2.7-5.7-7.2c0.1-2.5-0.8-3.8-2.9-5.3c-2.7-2-5.1-4.7-6.9-7.6
		c-1.9-2.9-0.6-6,2.2-7.7c2.8-1.6,6.1-1,7.9,1.8c2,3.1,4.2,5.4,8.2,3.9c2.8-1,4.1-3.2,3.9-6.1c-0.2-3.5-2.3-5-7.5-5.8
		c-8.5-1.2-14.6-6.4-16.2-13.9c-1.8-8.2,1.6-15.3,9.3-20.2c0.9-0.6,1.5-2,1.8-3.1c0.3-1,0-2.2,0.1-3.3c0.4-3.3,2.2-5.3,5.5-5.5
		c3.2-0.3,6.5,1.9,6.2,5.1c-0.4,4.7,1.9,6.6,5.4,8.8C228.2,284.9,229.9,288.1,232.4,291.1z"/>
	<path d="M113.7,236.1c-13.1,0-26.2,0-39.3,0c-3.4,0-6.2-0.8-7.2-4.5c-0.9-3.3,0.9-6.4,4.2-7.2c1.2-0.3,2.5-0.3,3.7-0.3
		c25.9,0,51.7,0,77.6,0c1.4,0,2.8,0,4.1,0.3c3,0.7,4.3,3,4.2,5.8c-0.1,2.9-1.4,5.1-4.5,5.6c-1.3,0.2-2.7,0.2-4.1,0.2
		C139.4,236.1,126.5,236.1,113.7,236.1z"/>
	<path d="M204.8,236.1c-6.2,0-12.5,0.1-18.7,0c-4.6,0-7-2.1-7-5.9c0-3.8,2.3-6,6.9-6c12.9-0.1,25.7-0.1,38.6,0
		c4.5,0,7.1,2.3,7.1,5.9c0,3.7-2.5,6-7,6C218,236.1,211.4,236.1,204.8,236.1z"/>
	<path d="M93.4,287.1c-6.7,0-13.5,0.1-20.2,0c-4.9-0.1-7.8-4.5-5.5-8.4c0.9-1.6,3.4-3.3,5.2-3.3c13.6-0.3,27.2-0.2,40.8-0.1
		c3.8,0,5.8,2.4,5.8,5.9c0,3.5-2.1,5.8-5.9,5.9C106.9,287.3,100.1,287.1,93.4,287.1C93.4,287.1,93.4,287.1,93.4,287.1z"/>
</g>
</svg>
