<?xml version="1.0" encoding="utf-8"?>
<!-- Generator: Adobe Illustrator 21.0.2, SVG Export Plug-In . SVG Version: 6.00 Build 0)  -->
<svg version="1.1" id="Layer_1" xmlns="http://www.w3.org/2000/svg" xmlns:xlink="http://www.w3.org/1999/xlink" x="0px" y="0px"
	 viewBox="0 0 394.6 394.6" style="enable-background:new 0 0 394.6 394.6;" xml:space="preserve">
<style type="text/css">
	.st0{fill:#CE3143;}
	.st1{fill:#EE3A47;}
	.st2{fill:#9B3E2D;}
	.st3{fill:#F67373;}
	.st4{fill:#E45555;}
	.st5{fill:#F67474;}
	.st6{fill:#CD3043;}
	.st7{fill:#F1C759;}
	.st8{fill:#EE3B47;}
	.st9{fill:#7A232E;}
	.st10{fill:#CE3043;}
</style>
<g>
	<path class="st0" d="M239.2,395.8c-0.2-0.8-1-0.7-1.5-0.9c5.2-1.2,10.4-2.4,15.6-3.7c19.5-5.2,35.8-15.1,46.7-32.6
		c8.5-13.6,11-29,11.6-44.7c0.4-11.1-0.8-22.2-2.1-33.2c-1.9-15.9-5.1-31.7-7.4-47.6c-0.7-4.6-2.3-9.1-1.3-13.8
		c1.1,0.9,2.1,1.9,3.3,2.7c2.4,1.6,4.8,1.7,7-0.4c2.7-2.5,2.5-5.5-0.2-8.8c-3.5-4.2-8.2-6.9-12.2-10.4c0.8-10.8,1.4-21.7-0.1-32.5
		c-2.3-16.8-8.4-32-19.2-45.3c8.4-2.5,17.1-3.2,25.6-4.6c11.9,12.6,19.5,27.4,22.5,44.6c1.5,8.7,2.3,17.5,1.5,26.4
		c-1.1,12.9,0.4,25.6,2.3,38.3c3.4,21.4,7.8,42.6,9.4,64.1c1.4,18.6,1.3,37.1-5.9,54.9c-7.9,19.5-22.3,32.2-41.5,39.7
		c-9.8,3.8-20,6.2-30.5,7.1c-0.5,0-1,0.2-1.2,0.7C254.1,395.8,246.7,395.8,239.2,395.8z"/>
	<path class="st1" d="M300.8,219.3c-1,4.7,0.7,9.2,1.3,13.8c2.3,15.9,5.5,31.6,7.4,47.6c1.3,11,2.6,22.1,2.1,33.2
		c-0.6,15.7-3.1,31.1-11.6,44.7c-10.9,17.5-27.1,27.4-46.7,32.6c-5.2,1.4-10.4,2.5-15.6,3.7c-25.7-3.2-48.5-13.6-69.6-27.9
		c-34-23.1-60.6-52.9-79.6-89.4C77.3,256,70.2,233.3,70,208.8c-0.2-20.6,3.1-40.6,12.6-59.2c0.9,7.2,3.7,13.2,10.7,16.5
		c4.2,2,8.4,1.3,12.7,0.7c1.1,1.1,2.2,2.1,3.3,3.2c4.7,5,10.3,8.2,17.4,8.6c1,0.9,2.2,0.6,3.3,0.6c11.9,0.1,24-8.4,27.3-19.8
		c2.6-8.9,4.3-18.1,6.4-27.1c2,0.6,4.1,0.9,6.2,0.8c0.3,0.6,0.9,0.8,1.5,0.8l0,0c0.1,0.5,0.1,1.1,0.4,1.4c7.1,9.3,10.3,20,12.1,31.3
		c1.1,6.9,5.1,11.7,12.1,13.9c3.7,1.2,7.3,0.1,10.9,0.3c0.9,0.9,1.9,1.7,2.7,2.7c5.9,7.1,18,11.6,28.1,8.2c3,0.2,5.4-1.4,7.8-2.8
		c9.9-5.6,15.3-17.2,14-28.5c-0.3-2.6-2.2-5.4-0.2-8.1c4.5,5.1,8,11,11.9,16.5c3.8,5.3,2.7,9.5-0.5,14.3
		c-4.1,6.3-9.4,11.5-14.6,16.8c-2.5,2.5-2.5,5.6-0.4,7.9c2.2,2.4,5.5,2.7,8.2,0.4c2-1.7,4-3.6,5.8-5.5c3.9-4,7.3-8.4,11-13.5
		c1.2,4.5,2.2,8.1,3.1,11.9c2.4,10.1,2.5,20.3,2.3,30.6c-0.1,4.6,2.9,7.2,7,6.2c3.3-0.8,4.4-3.3,4.5-6.4c0.1-4.7,0-9.3,0-14.8
		C299.3,218,300,218.7,300.8,219.3z M163.1,274.1c5.2,0,9.9,0.2,14.6,0c4.3-0.2,6.8-4.7,4.8-8.3c-1.4-2.5-3.9-3.1-6.6-3.1
		c-5.9,0-11.8-0.1-17.7,0c-2.1,0-3.3-0.6-4.2-2.6c-1.9-4.2-4-8.3-5.9-12.5c-5.4-12.3-8.5-25.2-9.8-38.5c-0.4-3.7-2.6-5.9-5.8-5.9
		c-3.4,0-5.6,2.5-5.7,6.4c0,1,0,2.1,0.1,3.1c1.1,8.8,2.9,17.4,5.6,25.9c0.6,2,1.5,3.9,0.7,6.3c-3.1,10.1-4.7,20.4-6.2,30.8
		c-0.7,4.3,0.9,7.1,4.3,7.8c3.8,0.7,6.3-1.1,7.1-5.6c1-5.2,1.8-10.5,2.7-15.8c1.6,0.3,1.7,1.5,2.2,2.3c5.4,9.9,11.4,19.6,19.2,27.8
		c4,4.2,5.1,8.4,4.1,13.9c-1,5.7-0.3,11.5,1,17.2c0.7,3.3,3.1,4.6,6.3,4.2c3.1-0.4,4.7-2.4,4.7-5.6c0-2-0.3-4.1-0.5-6.1
		c-0.2-2.2-0.6-4.5,0.4-7c4.4,3.4,8.5,6.7,12.7,9.8c4.9,3.7,8.4,3.7,10.8,0.5c2.3-3.2,1.3-6.2-3.7-9.8c-9.8-6.9-18.6-15-26.5-23.9
		C168.5,281.9,165.7,278.5,163.1,274.1z"/>
	<path class="st2" d="M126.6,178.6c-7-0.3-12.6-3.6-17.4-8.6c-1.1-1.1-2.2-2.1-3.3-3.2c-3.1-5.9-5.2-12.1-4.8-18.9
		c0.4-5.9,2.3-11.4,3.1-17.2c1.8-6.2,3.5-12.5,5.6-18.7c4.5-13.9,11.4-26.7,19.2-39.1c3.8-4.3,7.5-8.7,11.4-13
		c1.2-1.4,0.7-2.5,0.3-3.9c-2.4-8.1-5-16.2-7.2-24.3c-3.5-12.8,3.6-24,16.6-26.3c8.4-1.5,17.9,3.6,21.2,11.9
		c2.2,5.5,3.6,11.2,5.4,16.8c0.3,0.9,0.3,2,1.5,2.8c0-4.7,0.2-9.1,0-13.6c-0.6-12.9,9.2-22,20.2-22.1c11.6-0.1,20.3,9,20.6,21.8
		c0.1,4.4,0,8.7,0.8,13.2c1.6-5.3,3.2-10.6,4.9-15.9c2.6-8.2,8-13.2,16.5-14.8c13.4-2.5,26,10.1,23,23.3c-1.6,7.1-3.7,14.1-6.1,21
		c-1.2,3.4-0.5,5.4,2.3,7.4c3.4,2.5,6.5,5.5,9.1,8.8c-0.2,1.1-1,1.3-1.9,1.5c-12.1,2.8-23.8,6.7-35.2,11.5c-0.2-0.3-0.4-0.7-0.7-0.9
		c-13.3-8.4-28-10.9-43.3-8.5c-14.8,2.3-25.5,11.2-34,22.9c-11.3,15.6-17.8,33.3-22.2,51.8C129.5,155.6,126.8,166.9,126.6,178.6z"/>
	<path class="st3" d="M232.3,79c11.5-4.7,23.1-8.7,35.2-11.5c0.9-0.2,1.7-0.4,1.9-1.5c4.2,1.5,8-0.9,12-1.3c7-0.7,14-2.8,21-1.5
		c14,2.5,22.2,11.3,24.5,25.9c-1,0-2.1-0.1-3.1,0c-12.9,1.6-25.8,3.2-38.5,6.1c-17.8,4.1-34.9,9.9-51.1,18.3
		c-7.3,3.8-10.7,11.4-9,19.3c2.4,10.8,5.1,21.6,7.4,32.5c1.8,8.7,4.2,17.3,5.1,26.3c-10.2,3.4-22.2-1.1-28.1-8.2
		c-0.8-1-1.8-1.8-2.7-2.7c-3.1-5.5-4.5-11.5-5.7-17.8c-2.3-12.6-7.6-23.4-20.7-28.4c0-1.6,0.8-2.9,1.5-4.3
		c8.6-16.2,18.4-31.4,33.3-42.6C221,84.8,226.6,81.9,232.3,79z"/>
	<path class="st4" d="M237.7,191.6c-0.9-8.9-3.3-17.5-5.1-26.3c-2.3-10.9-5-21.6-7.4-32.5c-1.8-7.9,1.7-15.5,9-19.3
		c16.2-8.4,33.4-14.2,51.1-18.3c12.7-2.9,25.6-4.5,38.5-6.1c1-0.1,2.1,0,3.1,0c1.6,12.3-6.3,26.4-21.9,30.9
		c-8.6,1.3-17.3,2.1-25.6,4.6c-7.9,1.8-15.9,3.6-23.1,7.6c-1.5,0.2-3.7,0.3-2.9,2.5c2.2,5.8,2.6,12.2,5.9,17.7
		c-2,2.7-0.1,5.5,0.2,8.1c1.4,11.3-4.1,22.9-14,28.5C243.1,190.2,240.7,191.8,237.7,191.6z"/>
	<path class="st5" d="M88.2,130.6c-15.6,0.7-26.9-6.6-31.3-20.2C51.5,94,62.7,76,79.8,73.6c8.9-1.2,17.9-0.8,26.9-0.6
		c-4.2,8.3-8.6,16.5-11.6,25.3C91.6,108.8,88.1,119.3,88.2,130.6z"/>
	<path class="st4" d="M88.2,130.6c-0.1-11.3,3.4-21.8,6.9-32.3c2.9-8.9,7.4-17,11.6-25.3c7.5-0.7,14.9-0.2,22.4,0
		c-7.8,12.3-14.7,25.1-19.2,39.1c-2,6.2-3.7,12.5-5.6,18.7c-3.6,0-7.2,0-10.9,0.1C91.7,130.7,89.9,130.7,88.2,130.6z"/>
	<path class="st6" d="M93.4,130.7c3.6,0,7.2,0,10.9-0.1c-0.8,5.8-2.7,11.3-3.1,17.2c-0.4,6.9,1.6,13,4.8,18.9
		c-4.3,0.6-8.5,1.3-12.7-0.7c-7.1-3.3-9.8-9.3-10.7-16.5C85,142.6,89.5,136.9,93.4,130.7z"/>
	<path class="st7" d="M259.3,152.3c-3.3-5.4-3.7-11.9-5.9-17.7c-0.8-2.2,1.4-2.2,2.9-2.5c19.2,18,32.8,39.4,38.7,65.3
		c0.5,2.2,1.3,4.1,3.6,4.9c4,3.5,8.7,6.2,12.2,10.4c2.8,3.3,2.9,6.4,0.2,8.8c-2.2,2-4.6,2-7,0.4c-1.2-0.8-2.2-1.8-3.3-2.7
		c-0.7-0.7-1.5-1.3-3-2.7c0,5.5,0.1,10.1,0,14.8c0,3.1-1.2,5.6-4.5,6.4c-4.1,1-7.1-1.6-7-6.2c0.2-10.3,0.1-20.5-2.3-30.6
		c-0.9-3.7-2-7.4-3.1-11.9c-3.7,5-7.1,9.4-11,13.5c-1.9,2-3.8,3.8-5.8,5.5c-2.7,2.3-6,2.1-8.2-0.4c-2.1-2.3-2.1-5.4,0.4-7.9
		c5.2-5.3,10.5-10.5,14.6-16.8c3.2-4.9,4.2-9.1,0.5-14.3C267.3,163.2,263.8,157.4,259.3,152.3z"/>
	<path class="st8" d="M298.6,202.4c-2.4-0.8-3.1-2.7-3.6-4.9c-6-25.9-19.5-47.3-38.7-65.3c7.2-4,15.1-5.8,23.1-7.6
		c10.8,13.2,16.9,28.5,19.2,45.3C300,180.7,299.4,191.5,298.6,202.4z"/>
	<path class="st9" d="M232.3,79c-5.6,2.9-11.3,5.8-16.9,8.7c-13.9-9.9-26.8-7.6-37.8,0.8c-11.8,9-18.2,21.9-22.9,35.6
		c-1.5,4.4,1,7.4,5.6,8.1c1.1,0.2,2.3,0.1,3.4,0.1c-2.1,9-3.9,18.2-6.4,27.1c-3.3,11.4-15.4,19.9-27.3,19.8c-1.1,0-2.3,0.3-3.3-0.6
		c0.2-11.7,2.8-23,5.5-34.3c4.4-18.5,10.8-36.3,22.2-51.8c8.5-11.7,19.2-20.7,34-22.9c15.3-2.3,29.9,0.1,43.3,8.5
		C231.9,78.3,232,78.7,232.3,79z"/>
	<path class="st7" d="M163.1,274.1c2.6,4.4,5.5,7.8,8.4,11.1c8,8.9,16.7,17,26.5,23.9c5,3.5,6,6.6,3.7,9.8
		c-2.4,3.3-5.8,3.2-10.8-0.5c-4.2-3.1-8.3-6.4-12.7-9.8c-1,2.5-0.6,4.7-0.4,7c0.2,2,0.4,4.1,0.5,6.1c0.1,3.2-1.5,5.1-4.7,5.6
		c-3.3,0.5-5.6-0.9-6.3-4.2c-1.3-5.7-1.9-11.4-1-17.2c0.9-5.4-0.1-9.7-4.1-13.9c-7.8-8.2-13.8-17.8-19.2-27.8
		c-0.5-0.8-0.6-2-2.2-2.3c-0.9,5.3-1.7,10.5-2.7,15.8c-0.9,4.5-3.3,6.3-7.1,5.6c-3.4-0.6-4.9-3.5-4.3-7.8
		c1.6-10.4,3.2-20.8,6.2-30.8c0.7-2.4-0.1-4.3-0.7-6.3c-2.7-8.4-4.5-17.1-5.6-25.9c-0.1-1-0.1-2.1-0.1-3.1c0.1-3.9,2.3-6.4,5.7-6.4
		c3.3,0,5.5,2.2,5.8,5.9c1.3,13.4,4.4,26.2,9.8,38.5c1.9,4.2,4,8.3,5.9,12.5c0.9,1.9,2.1,2.6,4.2,2.6c5.9-0.1,11.8-0.1,17.7,0
		c2.7,0,5.2,0.6,6.6,3.1c2.1,3.6-0.4,8.1-4.8,8.3C173,274.3,168.3,274.1,163.1,274.1z"/>
	<path class="st4" d="M163.7,132.3c-1.2,0-2.3,0.1-3.4-0.1c-4.7-0.7-7.1-3.7-5.6-8.1c4.7-13.7,11.1-26.6,22.9-35.6
		c11-8.4,23.9-10.7,37.8-0.8c-14.9,11.3-24.7,26.5-33.3,42.6c-0.7,1.4-1.5,2.7-1.5,4.3c-3-0.3-6.1-0.6-9.1-0.9c0,0,0,0,0,0
		c-0.3-0.6-0.9-0.7-1.5-0.8C167.8,133.2,165.7,132.9,163.7,132.3z"/>
	<path class="st10" d="M171.4,133.8c3,0.3,6.1,0.6,9.1,0.9c13,5,18.3,15.7,20.7,28.4c1.1,6.2,2.6,12.2,5.7,17.8
		c-3.6-0.2-7.2,0.9-10.9-0.3c-7-2.2-11-7.1-12.1-13.9c-1.8-11.4-5-22.1-12.1-31.3C171.5,134.9,171.5,134.3,171.4,133.8z"/>
	<path class="st10" d="M169.9,133c0.6,0,1.2,0.1,1.5,0.8C170.8,133.8,170.2,133.7,169.9,133z"/>
</g>
</svg>
