<svg xmlns="http://www.w3.org/2000/svg" xmlns:xlink="http://www.w3.org/1999/xlink" version="1.1" id="Layer_1" x="0px" y="0px" viewBox="0 0 1024 1024" style="enable-background:new 0 0 1024 1024;" xml:space="preserve">
<style type="text/css">
	.st0{fill:#a1a1a1;}
	.st1{fill:url(#SVGID_1_);}
</style>
<g>
	<path class="st0" d="M195.6,50.9c361.8-131.6,804,95,804,493.4c0,255.8-208.3,467.8-467.8,467.8C276,1012,64.1,803.7,64.1,544.2   c0-222.9,160.8-409.3,369.1-456.8C414.9,80.1,305.3,47.2,195.6,50.9z M535.5,314c-127.9,0-233.9,106-233.9,233.9   s106,233.9,233.9,233.9s233.9-106,233.9-233.9C769.4,416.3,663.4,314,535.5,314z"/>
	
		<linearGradient id="SVGID_1_" gradientUnits="userSpaceOnUse" x1="197.2523" y1="686.1813" x2="819.3561" y2="326.998" gradientTransform="matrix(1 0 0 -1 0 1026)">
		<stop offset="0" style="stop-color:#aaa"/>
		<stop offset="1" style="stop-color:#CBEDFF"/>
	</linearGradient>
	<path class="st1" d="M195.6,50.9c358.1-135.2,804,95,804,493.4c0,255.8-208.3,467.8-467.8,467.8C276,1012,64.1,803.7,64.1,544.2   c40.2,131.6,135.2,222.9,248.5,263.1c164.4,58.5,314.3-3.7,409.3-116.9c54.8-65.8,84-138.9,91.3-212c7.3-69.4-7.3-138.9-36.5-201   C681.7,72.8,411.2,10.7,195.6,50.9z"/>
</g>
</svg>