<svg version="1.1" id="Layer_1" xmlns="http://www.w3.org/2000/svg" xmlns:xlink="http://www.w3.org/1999/xlink" x="0px" y="0px"
	 viewBox="0 0 400 325" style="enable-background:new 0 0 400 325;" xml:space="preserve">
<style type="text/css">
	.st0{fill:#2194FE;}
</style>
<g>
	<path class="st0" d="M203.1,67c-56.3,0-112.6,0-168.9,0C22,67,13.9,59.3,11.5,45.7c-2.8-15.3,6.5-30.8,19-31.8c1-0.1,2-0.1,3-0.1
		c112.9,0,225.9,0,338.8,0c11.6,0,19.5,7.5,22,20.6c3.1,15.6-6.1,31.4-18.9,32.4c-3,0.2-6,0.1-9,0.1C312,67,257.5,67,203.1,67z"/>
	<path class="st0" d="M203,262.1c56.3,0,112.6,0,168.9,0c12,0,19.9,7,22.5,19.5c3,14.7-6.2,29.5-19,30.5c-1.5,0.1-3,0.1-4.5,0.1
		c-111.9,0-223.9,0-335.8,0c-12.9,0-20.8-6.7-23.5-19.5c-3-14.7,6.2-29.7,19-30.5c6.8-0.4,13.7-0.2,20.5-0.2
		C101.7,262.1,152.3,262.1,203,262.1z"/>
	<path class="st0" d="M271.3,191c-35.1,0-70.3,0.1-105.4-0.1c-15.2-0.1-25.2-17.8-21.1-36.7c2.5-11.5,10.2-19.5,19.2-20.1
		c1.2-0.1,2.3-0.1,3.5-0.1c69.6,0,139.2,0.1,208.9-0.1c8.5,0,15.4,3.4,20.1,13.1c4.4,9.1,4.8,19,0.9,28.6c-3.8,9.6-9.9,15-18.1,15.1
		c-17,0.2-34,0.1-51,0.1C309.3,191,290.3,191,271.3,191z"/>
</g>
</svg>
