<?xml version="1.0" encoding="utf-8"?>
<!-- Generator: Adobe Illustrator 21.0.2, SVG Export Plug-In . SVG Version: 6.00 Build 0)  -->
<svg version="1.1" id="Layer_1" xmlns="http://www.w3.org/2000/svg" xmlns:xlink="http://www.w3.org/1999/xlink" x="0px" y="0px"
	 viewBox="0 0 384 384" style="enable-background:new 0 0 384 384;" xml:space="preserve">
<g>
	<path d="M74.3,40c0-4.7,0-8.8,0-12.9c0-3.1,1.1-5.2,4.3-5.5c2.8-0.3,4.6,2,4.7,5.5c0.1,4.1,0,8.2,0,12.6c12.7,0,25.3,0,38.3,0
		c0-4.1,0-8.2,0-12.2c0-3.9,1.8-6.2,4.7-5.9c3.5,0.4,4.4,2.7,4.3,5.9c-0.1,4,0,8,0,12.2c12.5,0,24.7,0,37.5,0c0-4.2,0-8.4,0-12.6
		c0-3.6,1.9-5.8,4.6-5.5c3.2,0.3,4.4,2.4,4.4,5.5c-0.1,4.1,0,8.2,0,12.6c12.7,0,25.2,0,38.3,0c0-4.2,0-8.4,0-12.6
		c0-3.6,1.8-5.8,4.6-5.5c3.2,0.3,4.4,2.4,4.4,5.4c-0.1,4.1,0,8.2,0,12.9c1.8,0,3.5,0,5.2,0c7.6,0,15.2-0.1,22.9,0
		c15.9,0.1,27.4,11.7,27.4,27.6c0,54.2,0,108.5,0,162.7c0,1.5,0,2.9,0,5.1c3.6-2.3,6.7-4.3,9.8-6.3c12.2-8,24.3-16.2,36.7-24
		c14.2-9,32.2-1.3,35.7,15.1c2,9.4-2.1,18.8-11.1,24.7c-18.6,12.2-37.2,24.4-55.7,36.6c-4.3,2.8-8.5,5.7-12.9,8.4
		c-2,1.2-2.6,2.6-2.5,4.8c0.1,13.7,0.1,27.5,0,41.2c0,17.1-11.7,28.8-28.7,28.8c-66.5,0-133,0-199.5,0c-16.6,0-28.3-11.6-28.3-28.3
		c0-89.5,0-179,0-268.5C23.3,51.5,34.6,40.1,51,40C58.6,40,66.2,40,74.3,40z M74.2,49.3c-0.8-0.1-1.2-0.3-1.5-0.3
		c-7.5,0-15-0.1-22.5,0c-10.4,0.1-17.9,7.7-17.9,18.1c0,90,0,180,0,270c0,10.9,7.8,18.6,18.7,18.6c66.9,0,133.7,0,200.6,0
		c11.3,0,19.1-7.8,19.1-19.1c0.1-11.7,0-23.5,0-35.2c0-1.1,0-2.1,0-3.7c-1.4,0.8-2.3,1.3-3.1,1.8c-12.1,8-24.2,15.9-36.4,23.8
		c-1.6,1-3.6,2-5.5,2.1c-12,0.5-24,0.8-36,1c-4.8,0.1-6.7-3.1-4.5-7.5c1.4-2.9,3-5.7,4.6-8.9c-18,0-35.3,0-52.7,0
		c-1.2,0-2.8,0.4-3.7-0.2c-1.5-1-3.6-2.8-3.5-4.1c0.1-1.6,2-3.3,3.5-4.5c0.7-0.6,2.2-0.2,3.3-0.2c17.6,0,35.2,0,52.9,0
		c5.8,0,6-0.2,7.5-6c-1.4,0-2.8,0-4.1,0c-18.7,0-37.5,0-56.2,0c-1.1,0-2.6,0.4-3.3-0.2c-1.5-1.2-3.4-2.9-3.5-4.5
		c-0.1-1.3,2-3,3.5-4.1c0.7-0.6,2.2-0.2,3.3-0.2c21,0,42,0,63-0.1c1.9,0,3.9-0.6,5.5-1.6c7.6-4.8,15.1-9.8,22.6-14.7
		c2.5-1.6,5.1-1.8,6.8,1c1.6,2.6,0.6,4.8-1.8,6.4c-1,0.7-2.1,1.4-3.1,2.1c-5.8,3.8-11.6,7.7-17.6,11.6c1.9,2.9,3.6,5.4,5.5,8.2
		c37.8-24.8,75.5-49.6,113.3-74.4c-1.9-2.9-3.6-5.4-5.4-8.2c-1.2,0.8-2.3,1.4-3.3,2.1c-20.8,13.6-41.6,27.3-62.3,40.9
		c-3.3,2.1-6.1,1.9-7.5-0.6c-1.7-3.1-0.2-5.2,2.4-6.8c4.5-2.9,9.1-5.8,13.4-8.9c1.2-0.8,2.2-2.7,2.2-4.1
		c0.1-57.2,0.1-114.5,0.1-171.7c0-9.3-6.4-17.1-15.5-17.7c-10.2-0.7-20.4-0.2-31-0.2c0,1.5,0.1,2.9,0,4.2c-0.3,3.9,0.2,6.6,4.5,8.8
		c7.3,3.8,9.7,13.2,6.5,20.6c-3.2,7.5-11.4,11.7-19.4,9.8c-7.2-1.7-12.3-7.5-13.2-15c-0.8-6.9,3.3-13.7,10-17c1-0.5,2.4-1.6,2.5-2.6
		c0.3-2.9,0.1-5.9,0.1-8.8c-13,0-25.6,0-38.2,0c0,1.8,0.1,3.3,0,4.8c-0.4,3.6,0.3,5.9,4.2,7.7c7.3,3.5,10.1,12.6,7.1,20.3
		c-2.9,7.7-10.9,12.2-18.9,10.6c-7.3-1.5-12.6-7-13.6-14.2c-1-7.4,2.6-14,9.3-17.7c1.1-0.6,2.6-1.6,2.7-2.5c0.3-3,0.1-6.1,0.1-9.1
		c-12.8,0-25.1,0-37.5,0c0,1.5,0.1,2.8,0,4c-0.3,3.9,0.2,6.6,4.5,8.8c7.2,3.7,9.7,13.2,6.5,20.6c-3.3,7.7-11.6,11.8-19.7,9.8
		c-7-1.7-12-7.5-12.8-14.9c-0.8-6.8,3.2-13.6,9.6-16.8c1.1-0.6,2.7-1.7,2.8-2.7c0.4-2.9,0.1-5.9,0.1-8.8c-13,0-25.6,0-38.2,0
		c0,2.7,0.1,5,0,7.4c-0.1,2.1,0.5,3.2,2.6,4.2c7.4,3.3,11,10.5,9.5,18.4c-1.4,7.6-7.7,13.3-15.6,13.8c-7.4,0.6-14.6-4.3-17-11.6
		c-2.4-7.2,0.1-15.6,6.8-19.2c4.2-2.3,5.3-4.9,4.7-9.1C74.1,52,74.2,50.8,74.2,49.3z M228.2,314.7c37.9-24.9,75.6-49.6,113.4-74.4
		c-2-3-3.8-5.5-5.6-8.2c-38,24.9-75.6,49.6-113.3,74.4C224.6,309.3,226.3,311.9,228.2,314.7z M348.9,235c5.5-6.2,5.9-13.8,1.2-19.4
		c-4.2-5.1-11.1-6.7-16.4-3.7C338.7,219.5,343.7,227.1,348.9,235z M196.9,316.7c7.3,0,14.2,0,21.8,0c-4.3-6.5-8.1-12.3-12.2-18.6
		c-3.2,6-6.1,11.4-8.9,16.8C197.4,315.5,197.2,316.1,196.9,316.7z M133.6,76.3c0.1-4.4-3.2-7.9-7.6-8c-4.6-0.1-8.2,3.4-8.2,7.9
		c0,4.3,3.6,7.9,7.9,7.9C129.9,84.2,133.5,80.6,133.6,76.3z M219.5,68.3c-4.4,0-7.9,3.4-7.9,7.8c-0.1,4.4,3.8,8.2,8.1,8
		c4.3-0.1,7.7-3.7,7.7-8.1C227.3,71.6,223.9,68.3,219.5,68.3z M79,68.3c-4.4-0.1-7.9,3.2-8,7.6c-0.2,4.5,3.5,8.2,7.9,8.2
		c4.2,0,7.9-3.7,7.9-7.9C86.8,72,83.3,68.4,79,68.3z M164.7,76.1c0,4.3,3.5,7.9,7.8,8c4.3,0.1,8.2-3.8,8.1-8.1
		c-0.1-4.3-3.7-7.7-8-7.7C168.1,68.3,164.8,71.7,164.7,76.1z"/>
	<path d="M82,179.7c-16.9,0-30.5-13.5-30.6-30.4c-0.1-16.8,13.6-30.6,30.4-30.6c16.9,0,30.5,13.6,30.6,30.4
		C112.6,165.9,98.9,179.7,82,179.7z M81.7,170.7c12.1,0.1,21.8-9.5,21.8-21.5c0-11.6-9.5-21.3-21.1-21.4c-12.1-0.1-21.8,9.3-22,21.3
		C60.3,160.9,69.8,170.6,81.7,170.7z"/>
	<path d="M81.9,254.7c-16.9,0-30.5-13.6-30.5-30.5c0-16.9,13.7-30.5,30.5-30.5c16.9,0,30.5,13.7,30.5,30.5
		C112.5,241,98.8,254.7,81.9,254.7z M81.9,245.7c12.1,0,21.7-9.7,21.5-21.8c-0.1-11.8-9.8-21.2-21.8-21.2
		c-11.8,0.1-21.4,9.8-21.3,21.6C60.5,236.2,70,245.7,81.9,245.7z"/>
	<path d="M81.8,329.7c-16.9-0.1-30.5-13.7-30.4-30.6c0.1-16.9,13.8-30.4,30.6-30.4c16.8,0.1,30.4,13.7,30.4,30.6
		C112.5,316.1,98.7,329.7,81.8,329.7z M81.7,320.7c12.1,0.1,21.8-9.5,21.8-21.5c0-11.6-9.5-21.3-21.1-21.4
		c-12.1-0.1-21.8,9.3-22,21.3C60.3,310.9,69.8,320.6,81.7,320.7z"/>
	<path d="M190.5,145c-17.9,0-35.7,0-53.6,0c-1.1,0-2.6,0.4-3.3-0.2c-1.4-1.1-3.5-2.8-3.4-4.2c0.1-1.6,2.1-3.2,3.5-4.5
		c0.7-0.6,2.2-0.2,3.3-0.2c35.7,0,71.5,0,107.2,0c1,0,2-0.1,3,0.1c2.6,0.4,4.1,1.8,4.1,4.5c0,2.7-1.6,4.1-4.2,4.4c-1,0.1-2,0-3,0
		C226.2,145,208.3,145,190.5,145z"/>
	<path d="M190.6,211c17.9,0,35.7,0,53.6,0c1,0,2-0.1,3,0.1c2.6,0.4,4.1,1.8,4.1,4.5c0,2.7-1.6,4.1-4.2,4.4c-0.9,0.1-1.7,0-2.6,0
		c-35.9,0-71.7,0-107.6,0c-1.1,0-2.6,0.4-3.3-0.2c-1.4-1.1-3.5-2.8-3.4-4.1c0.1-1.6,2.1-3.2,3.5-4.5c0.7-0.6,2.2-0.2,3.3-0.2
		C154.9,211,172.7,211,190.6,211z"/>
	<path d="M164.3,160c-9.6,0-19.2,0-28.8,0c-4.4,0-7-3.7-4.7-6.7c0.9-1.2,2.9-2.2,4.4-2.2c19.6-0.1,39.2-0.1,58.8-0.1
		c2.9,0,4.9,1.4,4.9,4.5c0,3.1-2,4.5-4.9,4.5C184,160,174.2,160,164.3,160z"/>
	<path d="M164.6,226c9.5,0,19,0,28.5,0c3.1,0,5.5,0.9,5.7,4.4c0.2,3-1.9,4.6-5.9,4.6c-19,0-38,0-56.9,0c-2.7,0-5-0.5-5.9-3.5
		c-0.9-3,1.4-5.5,5.3-5.5C145.1,226,154.8,226,164.6,226z"/>
	<path d="M49.5,116.7c0,6.9,0,13.7,0,20.6c0,3.7-1.6,5.6-4.5,5.6c-2.9,0-4.4-1.9-4.5-5.7c0-13.6,0-27.2,0-40.8
		c0-3.2,0.9-5.5,4.4-5.8c2.9-0.3,4.6,2,4.6,5.9C49.5,103.2,49.5,110,49.5,116.7z"/>
	<path d="M50,78.6c-0.7,1.9-1,4.1-2.2,5.4c-1.7,1.9-4.1,1.7-6,0c-2.2-2-2.1-9.3,0.1-11.1c2-1.7,4.4-1.8,6,0.2
		C49.1,74.4,49.3,76.5,50,78.6z"/>
	<path d="M78.2,149.9c3.9-3.7,6.9-6.5,9.8-9.4c2.2-2.2,4.6-3.1,7.2-0.7c2.1,2,1.8,4.5-0.8,7.1c-3.8,3.7-7.7,7.4-11.6,11.1
		c-3,2.8-4.9,2.7-7.7,0c-2.2-2.1-4.3-4.2-6.3-6.3c-1.9-2-2.1-4.4-0.2-6.4c2.1-2.2,4.5-2,6.6,0.1C76.3,146.7,77.1,148.2,78.2,149.9z"
		/>
	<path d="M78.7,224.5c3.5-3.4,6.5-6.2,9.5-9c2.7-2.5,5.2-2.8,7.1-0.6c2.3,2.7,1.2,5-1,7.1c-3.9,3.7-7.7,7.4-11.6,11.1
		c-2.9,2.7-4.8,2.6-7.7-0.2c-2.1-2-4.1-4-6.1-6.1c-2-2.1-2.4-4.5-0.3-6.6c2.1-2.1,4.5-1.8,6.6,0.3C76.3,221.6,77.3,222.9,78.7,224.5
		z"/>
	<path d="M78.5,299.7c3.7-3.5,6.6-6.3,9.6-9.1c2.2-2.2,4.6-3.1,7.2-0.7c2.1,2,1.9,4.5-0.8,7.1c-3.8,3.7-7.7,7.4-11.6,11.1
		c-3,2.8-4.9,2.7-7.7,0c-2.2-2.1-4.3-4.2-6.3-6.3c-1.9-2-2.1-4.3-0.2-6.4c2.1-2.2,4.5-2,6.6,0.1C76.3,296.6,77.2,298.1,78.5,299.7z"
		/>
</g>
</svg>
