<?xml version="1.0" encoding="utf-8"?>
<!-- Generator: Adobe Illustrator 21.0.2, SVG Export Plug-In . SVG Version: 6.00 Build 0)  -->
<svg version="1.1" id="Layer_1" xmlns="http://www.w3.org/2000/svg" xmlns:xlink="http://www.w3.org/1999/xlink" x="0px" y="0px"
	 viewBox="0 0 384 384" style="enable-background:new 0 0 384 384;" xml:space="preserve">
<g>
	<path d="M0.8,37.3c1.8-4.5,3-9.3,5.6-13.3C13,13.6,22.9,8.8,35.2,8.8c41.1,0,82.2,0,123.4,0c33,0,66,0,99,0
		c21.8,0,35.7,13.9,35.7,35.5c0,19.6,0,39.2,0,58.9c0,1.1,0.1,2.3-0.1,3.4c-0.6,2.9-2.5,4.7-5.4,4.7c-3,0-4.9-1.7-5.6-4.6
		c-0.3-1.2-0.1-2.5-0.1-3.7c0-20,0-40,0-60c0-13.5-9.3-22.9-22.9-22.9c-65.6,0-131.2,0-196.9,0c-0.8,0-1.7,0-2.9,0
		c0.3,0.8,0.4,1.2,0.6,1.6c5.1,6.6,7,14.1,7,22.4c-0.1,83.6-0.1,167.2-0.1,250.9c0,1.6,0,3.2,0,5.4c1.7,0,3.1,0,4.6,0
		c37.4,0,74.7,0,112.1,0c1.2,0,2.8-0.4,3.7,0.2c1.8,1.3,4.2,2.9,4.4,4.7c0.2,1.8-1.5,4.2-3.1,5.6c-1.1,0.9-3.3,0.8-5,0.8
		c-39.7,0-79.5,0-119.2,0c-7,0-8.6-1.6-8.6-8.6c0-66.2,0-132.5,0-198.7c0-1.6,0-3.2,0-5.3c-1.6,0-3,0-4.3,0c-14,0-28-0.1-42,0.1
		c-3.4,0-6.3-0.6-8.6-3.3C0.8,76.3,0.8,56.8,0.8,37.3z M55.4,87.6c0.1-0.9,0.2-1.6,0.2-2.3c0-14.6,0-29.2,0-43.8
		c0-1.4-0.1-2.8-0.4-4.1C52.7,26.6,42.5,19.1,32,20.2c-11.4,1.2-19.9,10.2-20,21.5c-0.1,14.5,0,29,0,43.4c0,0.8,0.2,1.6,0.3,2.4
		C26.8,87.6,41,87.6,55.4,87.6z"/>
	<path d="M384.8,158c-11.2,19.2-22.3,38.4-33.5,57.6c-3.1,5.3-5.8,6.8-9.3,4.7c-3.3-2-3.5-5.1-0.4-10.4
		c9.9-17.1,19.7-34.2,29.8-51.6c-2.5-1.5-4.9-2.9-7.7-4.6c-0.9,1.4-1.7,2.6-2.4,3.9c-22.1,38.3-44.2,76.5-66.3,114.8
		c-3.7,6.4-5,6.9-11.8,4.2c-1.1,1.7-2.3,3.5-3.4,5.2c-13.7,21.2-27.4,42.4-41.2,63.5c-1.1,1.7-2.6,3.4-4.3,4.6
		c-11.1,8.1-22.3,16-33.4,24.1c-2.4,1.7-4.7,2.9-7.6,1.2c-2.8-1.7-3-4.3-2.6-7.2c1.4-13.7,2.7-27.3,4.3-41c0.2-2.2,1-4.4,2-6.3
		c12.3-24.1,24.6-48.2,37-72.4c-0.2-0.3-0.4-0.7-0.6-0.9c-4.7-3.4-5.2-5.3-2.3-10.3c19.9-34.5,39.8-69,59.7-103.5
		c4.4-7.6,8.5-15.3,13.2-22.6c8.5-13.1,21-18.8,36.3-16.5c15.4,2.3,25.3,11.6,29.7,26.6c2.1,7.1,1.7,13.1-0.9,22.1
		c5.2,3.7,10.4,7.4,15.7,11.1C384.8,155.5,384.8,156.8,384.8,158z M286.2,264.9c0.8-1.3,1.6-2.5,2.2-3.6
		c9.3-16.1,18.6-32.2,27.9-48.3c13.2-22.8,26.3-45.6,39.5-68.4c4-6.8,5.4-14,2.9-21.6c-3.3-9.9-10.2-16-20.5-17.4
		c-11.4-1.5-20.2,3.1-26,13.1c-22.9,39.5-45.7,79.1-68.5,118.7c-0.4,0.7-0.7,1.5-1.1,2.4C257.3,248.2,271.6,256.5,286.2,264.9z
		 M208.1,323.6c7.9,4.5,15.3,8.8,22.8,13.1c14.3-22.2,28.5-44,42.7-66.1c-10.1-5.8-19.8-11.4-29.7-17.1
		C231.9,277,220.1,300.1,208.1,323.6z M203,358.7c6.8-4.9,12.9-9.2,19.3-13.9c-5.9-3.4-11.2-6.4-16.9-9.8
		C204.6,342.9,203.8,350.3,203,358.7z"/>
	<path d="M161.8,101.2c5.8,7.5,11.3,14.7,17.1,22.2c0.8-0.9,1.6-1.6,2.2-2.5c5-6.5,10-13.1,15.1-19.6c2.7-3.5,5.8-4.2,8.6-2
		c2.8,2.1,2.9,5.4,0.2,8.9c-6.2,8.1-12.5,16.2-18.9,24.6c6,7.8,11.9,15.5,17.8,23.1c3.7,4.8,4,8,0.9,10.4c-3.1,2.4-6,1.4-9.8-3.5
		c-5.1-6.6-10.2-13.2-15.3-19.9c-0.1-0.2-0.4-0.3-0.9-0.5c-5.1,6.7-10.3,13.4-15.4,20c-0.7,0.9-1.3,1.8-2.1,2.7
		c-2.5,2.7-5.4,3.2-7.9,1.3c-2.6-2-3-5.3-0.8-8.3c5.6-7.4,11.2-14.7,16.9-22c0.8-1,1.5-2,2.5-3.3c-3-3.9-6-7.9-9-11.8
		c-3.7-4.9-7.9-9.4-11.1-14.6c-3.2-5.3-7.3-6-13-4.8c-0.1,1.2-0.2,2.5-0.2,3.9c0,11.9,0,23.7,0,35.6c0,1.4,0,2.8-0.4,4.1
		c-0.9,2.7-2.9,4.1-5.7,3.8c-2.8-0.3-4.5-2-5-4.8c-0.2-1.1-0.1-2.2-0.1-3.4c0-30.1,0-60.2,0-90.3c0-6.6,1.5-8.1,8.2-8.1
		c7.4,0,14.7-0.1,22.1,0c14.9,0.2,27,11.3,28.9,26.3c1.7,13.8-7.6,27.5-21.3,31.4C164.3,100.5,163.2,100.8,161.8,101.2z M138.9,53.8
		c0,12.2,0,24,0,36.2c5.5,0,10.9,0,16.2,0c1.9,0,3.8,0,5.6-0.3c8.6-1.4,15.1-9.6,14.8-18.5c-0.3-8.9-7.4-16.8-16.1-17.3
		C152.6,53.5,145.9,53.8,138.9,53.8z"/>
	<path d="M165,208.3c-21.2,0-42.5,0-63.7,0c-1.1,0-2.3,0.1-3.4-0.1c-3.2-0.3-5.5-2.7-5.3-5.7c0.2-3.2,2-5,5.2-5.4
		c0.9-0.1,1.7,0,2.6,0c43.2,0,86.5,0,129.7,0c1,0,2-0.1,3,0.1c2.9,0.5,4.7,2.3,4.8,5.3c0.1,3.2-1.7,5.1-4.8,5.8
		c-1.1,0.2-2.2,0.1-3.4,0.1C208.2,208.3,186.6,208.2,165,208.3z"/>
	<path d="M155.7,246.6c-18.6,0-37.2,0-55.8-0.1c-1.8,0-4.1-0.3-5.2-1.4c-1.2-1.3-2.1-3.9-1.6-5.6c0.5-1.6,2.6-3,4.3-4
		c0.9-0.6,2.4-0.2,3.7-0.2c36.6,0,73.2,0,109.8,0c0.9,0,1.8,0,2.6,0c3.5,0.3,5.8,2.5,5.7,5.7c0,3.2-2.2,5.4-5.8,5.5
		c-4.1,0.1-8.2,0-12.4,0C186,246.6,170.9,246.6,155.7,246.6z"/>
	<path d="M282,300.1c0-2.6-0.1-4.9,0-7.3c0.2-3.2,2.5-5.5,5.5-5.5c3.1-0.1,5.6,2.2,5.7,5.7c0.1,4.4,0,8.7,0,13.1
		c0,0.2,0,0.5-0.1,0.7c-0.8,3.5-3.2,5-6.5,4.8c-4.3-0.3-9.7,1.9-11.9-4.1C273.2,303.7,276.1,300.8,282,300.1z"/>
</g>
</svg>
