<?xml version="1.0" encoding="utf-8"?>
<!-- Generator: Adobe Illustrator 21.0.2, SVG Export Plug-In . SVG Version: 6.00 Build 0)  -->
<svg version="1.1" id="Layer_1" xmlns="http://www.w3.org/2000/svg" xmlns:xlink="http://www.w3.org/1999/xlink" x="0px" y="0px"
	 viewBox="0 0 384 384" style="enable-background:new 0 0 384 384;" xml:space="preserve">
<g>
	<path d="M53.3,385c-7.6-1.8-14.8-4.2-21.2-9c-17.1-13-22.4-36.4-12.4-55.5c9.9-19,32.4-28.1,52.7-21.2c2.4,0.8,3.8,0.4,5.5-1.3
		c3.6-3.8,7.4-7.5,11.1-11.2c2.9-2.9,6.2-3.2,8.6-0.9c2.5,2.4,2.3,5.8-0.7,8.9c-3.6,3.6-7.3,7.2-11.2,11c3,2.4,5.8,4.6,8.6,6.9
		c-0.2,0.4-0.5,0.8-0.7,1.2c0.9-0.8,1.8-1.6,2.6-2.4c4.9-4.8,9.7-9.8,14.8-14.4c17.1-15.1,36.3-18.8,57.8-10.5
		c13.3,5.1,25.1,12.8,36.8,20.7c16.5,11.3,32.7,22.9,49.5,33.7c12.8,8.2,26.7,13.8,42.1,15.9c22.3,3,44.4-7.9,55.6-27.7
		c10.9-19.6,8.8-44.4-5.4-61.5c-2.7-3.2-5.8-6.2-8.3-8.9c-2.8,2.7-5.3,5.2-7.9,7.7c2.8,3.1,6.1,6.4,8.8,10
		c10.6,14.3,11.4,33.4,2.1,48.6c-9.1,14.9-26.5,22.8-44,20.4c-16-2.2-30-9.2-43.2-17.9c-16.2-10.8-32-22.3-48.1-33.2
		c-11.9-8.1-24.3-15.4-38.1-19.8c-18.7-6.1-36.7-4.8-53.7,5.6c-2.7,1.7-5.7,2.4-7.7-0.3c-1.2-1.6-1.3-4.3-1-6.4
		c0.2-1.2,2.1-2.3,3.5-3.2c19.9-11.9,40.9-13.4,62.7-6.3c17.2,5.6,32.2,15.2,46.9,25.4c14.9,10.3,29.6,20.9,44.7,30.8
		c10.6,6.9,22,12.2,34.8,14.2c14.3,2.2,28.1-4.5,34.6-17c6.5-12.4,4.1-27.2-5.6-37.9c-4.6-5.1-8.5-7.7-16-4.7
		c-9.3,3.7-19.4,2.6-29.1-0.1c-42.7-11.6-84.8-24.9-124.9-43.7c-22.4-10.4-43.9-22.2-62.4-39c-9.1-8.2-17.3-17.3-20.4-29.5
		c-5.3-20.7,0.5-38.9,12.8-55.6c1.2-1.6,1.9-3.4,2.8-5.2c1.7-3.2,2.9-6.7,5-9.6c3.9-5.5,9.2-7.1,15.5-4.4
		c8.9,3.9,15.5,10.4,19.4,19.4c2.7,6.2,1.1,11.6-4.5,15.5c-2.7,1.9-5.8,3.6-8.9,4.6c-2.9,0.9-4.7,2.6-6,5.1
		c-3.8,7.8-6.3,15.8-2.4,24.4c1.3,2.9-0.2,6-2.9,7.1c-2.8,1.2-5.6,0.2-7.3-2.8c-3.5-6.5-3.9-13.5-2.2-20.4c1.3-5.1,3.8-10,5.5-15
		c0.4-1.1,0.2-2.8-0.5-3.7c-1.7-2.2-3.7-4-5.5-5.8c-0.6,0.1-0.9,0.1-1,0.2c-9,12.9-12.9,27-9.2,42.5c2.6,10.7,10.1,18.2,18,25.3
		c16.1,14.4,34.6,25.1,54,34c16.2,7.4,32.7,14.2,49.4,20.6c3.9,1.5,8.9,0.7,13.3,0.3c4.4-0.3,8.7-1.3,13.1-2.7
		c-9.8-3.6-19.7-7-29.5-10.7c-26.6-10.2-52.6-21.7-76.5-37.6c-4.5-3-8.7-6.3-12.9-9.6c-2.7-2.1-3-5.6-1.1-8c1.9-2.4,5.3-2.9,8-0.7
		c26.1,20.5,56,33.6,86.6,45.3c13.6,5.2,27.5,9.7,41.4,14.4c1.4,0.5,3.5,0.4,4.9-0.3c20.8-10.4,36.4-26.1,46.9-46.8
		c0.8-1.5,0.9-3.9,0.3-5.6c-3.2-10.2-6.7-20.4-10.2-30.5c-1-2.8-1.1-5.4,1.5-7.5c3-2.4,7.2-1.1,8.8,2.9c2.2,5.8,4.2,11.8,6.3,17.6
		c0.2,0.5,0.4,1,1.1,1.5c1.8-9.5,4.9-18.8,1.3-28.5c-10.7-28.3-22.1-56.3-39-81.6c-6.1-9.2-13.4-17.8-21.1-25.7
		c-13.2-13.6-29.4-16.1-46.9-9.9c-5.2,1.8-10.1,4.7-15.7,7.3c3.3,2.9,6,5.3,8.5,7.4c5.8-1.9,12-4.4,18.5-5.9c9.5-2.2,18,0.5,25.3,7
		c9.7,8.6,17.3,19,24.2,29.9c11.4,18.1,20.4,37.5,28.5,57.2c1.6,3.9,0.7,7-2.3,8.3c-3.3,1.5-6.3,0.1-8-4
		c-7.9-18.9-16.1-37.7-27.4-54.9c-6.2-9.3-13.1-18.3-20.8-26.4c-8.4-9-23.3-8.6-32.5-0.2c-0.8,0.8-1.2,2.1-1.8,3.2
		c-1.9,3.5-3.3,7.3-5.6,10.5c-3.3,4.6-8.3,6.1-13.7,4.1c-10-3.8-17-10.9-20.9-20.7c-2.2-5.5-0.5-10.3,4-14.1
		c0.8-0.6,1.5-1.4,2.4-1.7c9.8-3.4,17.4-10.6,26.6-14.9c13.8-6.3,28.1-8.7,43-4.3c9.3,2.8,16.9,8.6,23.7,15.2
		c13.7,13.4,24,29.4,33,46.1c19.1,35.3,32.6,72.8,44.2,111.1c4.3,14.1,8.2,28.3,11.5,42.6c2.1,9,0.7,18.2-2.8,26.8
		c-1,2.4-0.7,3.7,1.2,5.4c10.3,9.4,18.2,20.4,22,34.2c12.5,45.6-25.6,89.3-72.5,83.2c-20.9-2.7-39.1-11.8-56.2-23.2
		c-15-10-29.5-20.6-44.3-30.8c-11-7.5-22.4-14.6-35.3-18.6c-13.4-4.1-26-2.4-36.8,6.3c-8.1,6.4-15.3,14-22.7,21.2
		c-0.8,0.7-0.6,3-0.1,4.3c7.5,23.5-5.7,48.8-29.2,55.7c-2.2,0.7-4.5,1.3-6.8,1.9C60.8,385,57,385,53.3,385z M58.9,308.3
		c-18.1-0.1-32.7,14.2-32.9,32.3c-0.2,17.9,14.3,32.9,32.3,33.1c18.1,0.2,33.1-14.5,33.2-32.6C91.5,323.2,76.9,308.5,58.9,308.3z
		 M321.3,163.5c-0.2,0-0.5,0.1-0.7,0.1c-1.4,4.4-2.6,8.9-4.3,13.1c-1.2,2.9-1.1,5.4-0.3,8.3c3.4,11.7,7.3,23.4,9.8,35.3
		c4.4,20.5-11.8,37.4-32.2,33.5c-12.7-2.4-25-6.7-37.5-10.1c-1.3-0.4-2.8-1-3.9-0.6c-5.6,1.7-11.1,3.7-17.2,5.7
		c6,1.9,11.3,3.7,16.8,5.2c13.9,3.8,27.7,8.5,41.9,11c23.1,4.1,43.8-13.9,43.8-37.3c0-7.2-1.8-14.6-3.7-21.6
		C329.9,191.9,325.5,177.8,321.3,163.5z M267,235.5c10.2,2.7,19.1,5.5,28.3,7.3c11.4,2.2,20.8-5.5,19.5-16.9
		c-1.1-10.1-4.4-20-6.8-30c-0.4,0-0.7,0-1.1,0C297,212,284,225,267,235.5z M184.3,48.4c0.4-0.2,0.9-0.4,1.3-0.7
		c3.3-2.4,3.7-7.2,0.8-10.1c-1.7-1.7-3.4-3.3-5-5c-3.8-3.8-4.9-3.9-9.4-0.8c-1.8,1.2-2.5,2.7-1,4.3c3.6,3.9,7.4,7.6,11.2,11.3
		C182.7,48,183.5,48.1,184.3,48.4z M105.8,97.8c-1,1.6-2.2,3.1-3.2,4.9c-0.8,1.5-1.8,3,0.1,4.6c2.3,2,4.4,4.4,6.6,6.6
		c3.8,3.8,4.4,3.8,9,0.9c2.2-1.3,2.8-3,1.2-4.8c-3.5-3.8-7.2-7.4-10.9-10.9C108,98.5,107.2,98.4,105.8,97.8z"/>
</g>
</svg>
