<?xml version="1.0" encoding="utf-8"?>
<!-- Generator: Adobe Illustrator 21.0.2, SVG Export Plug-In . SVG Version: 6.00 Build 0)  -->
<svg version="1.1" id="Layer_1" xmlns="http://www.w3.org/2000/svg" xmlns:xlink="http://www.w3.org/1999/xlink" x="0px" y="0px"
	 viewBox="0 0 512 512" style="enable-background:new 0 0 512 512;" xml:space="preserve">
<style type="text/css">
	.st0{fill:#7579E7;}
</style>
<g>
	<path class="st0" d="M145,261.2c0-1-0.1-2,0-3c1.4-12-0.2-22.8-10.3-31.2c-3.9-3.3-5.9-8.5-7.7-13.3c-1.3-3.6-3.6-5-7.1-5.8
		c-19.4-4.4-31.1-19.4-30.9-39.2c0.1-12.6,10.9-23.5,23.6-23.8c0.8,0,1.7-0.1,2.5,0c4.9,0.9,6.3-1.1,6-5.9
		c-0.4-7.5,2.5-10.1,10.2-10.1c14.2,0,28.3-0.2,42.5,0.1c12.7,0.3,21.2-5.5,26.6-16.6c0.5-1,1-2.1,1.6-3.1
		c3.4-5.8,10.8-5.9,14.1-0.1c1.8,3.2,3,6.7,5.3,9.6c5.6,6.9,12.8,10.4,21.7,10.2c4.2-0.1,8.3-0.1,12.5,0c6.6,0.1,9.1,2.9,9.5,9.5
		c0.1,2.2-1.7,5.9,1.7,6.2c3.6,0.3,2.8-3.7,3.3-6.1c4.4-19.8,4.5-39.3-4.1-58.1c-12.3-26.6-33.1-42.3-62.2-46.6
		c-25.4-3.7-47.5,4-66,21.1c-13.4,12.4-21.3,28.2-23.9,46.5c-0.9,6.1-0.8,12.3-0.8,18.4c0,5.3-2.9,8.7-7.3,8.9
		c-4.6,0.2-8.3-3.3-8.7-8.5c-1.3-19.4,2.5-37.9,12.3-54.7c14.3-24.4,35.3-40.5,63.2-46.6c28.4-6.2,54.7-0.6,77.8,17
		c28.4,21.6,40.7,51,38.4,86.3c-0.5,7.6-1.4,15.2-3.4,22.6c-0.5,1.7-0.6,3.1,1.1,4.4c15.4,11.1,11.6,31.1,3.3,43
		c-5.7,8.3-13.9,13.3-23.7,15.4c-3.8,0.8-5.9,2.4-7.4,6.1c-3.3,8.1-7.9,15.4-14.6,21.2c-2.6,2.3-3.4,4.9-3.4,8.3
		c0.2,10-0.5,20,0.2,30c0.8,11.3-4.3,19.6-12,26.7c-19.5,18-55.7,17-74.3-2c-6.4-6.6-11-14.1-9.9-24
		C145.4,269.9,145,265.6,145,261.2z M162.2,145c-8,0-14.7,0-21.4,0c-2.2,0-3.9,0.2-3.8,3.1c0.5,15.1-1.1,30.3,1,45.3
		c3.8,27.2,25.6,46.5,53.3,47.4c32.2,1.1,57.6-24.1,57.7-56.4c0-11.5-0.1-23,0.1-34.5c0.1-3.8-0.8-5.3-4.9-5.1
		c-12.8,0.7-23.9-3.1-32.6-12.9c-1.9-2.2-3.3-2.1-5.2,0.1c-4.3,5-9.6,8.5-15.9,10.8C180.7,146.3,170.7,144.4,162.2,145z M225,265.5
		c0-4-0.1-8,0-12c0.1-2.5-0.3-3.7-3.3-2.5c-19.1,8.1-38.4,8.1-57.5,0c-2.4-1-3.3-0.7-3.2,2c0.1,8.1,0,16.3,0,24.4
		c0,1.8,0.8,3.2,1.7,4.6c5.8,9.1,14.6,13.3,24.9,14.6c11,1.3,21-0.9,30-7.8C225.7,282.7,225.7,274.3,225,265.5z M121,177.5
		C121,177.5,121,177.5,121,177.5c0-3.8-0.1-7.6,0-11.4c0-2-0.6-3.4-2.6-4.3c-5.4-2.6-12.5,1-13.4,6.9c-1.2,7.8,5.5,19.1,12.8,21.8
		c2.2,0.8,3.1,0.3,3.1-2C121,184.8,121,181.1,121,177.5z M265,177C265,177,265,177,265,177c0,3.5,0.1,7-0.1,10.5
		c-0.2,3.6,1.3,4.1,4.1,2.5c7.7-4.3,11.3-11,11.8-19.5c0.3-4.5-3.1-8.5-7.4-9.3c-5.6-1.1-8.5,1.3-8.5,6.9C265,171,265,174,265,177z"
		/>
	<path class="st0" d="M401,291.1c0-17.8-0.1-35.7,0.1-53.5c0-3.8-1.3-5.2-5-5.7c-22.5-3.1-40.8-13.8-55.3-31.3
		c-14.5-17.6-20.4-37.9-19.8-60.5c0.4-17,0.6-34-0.1-51c-0.4-10.9,11-24.9,24.2-24.1c0.2,0,0.3,0,0.5,0c7.4,0,7.4,0,7.5-7.4
		c0.1-6.3,4.2-9.9,9.9-8.5c4.2,1,6,4.2,6,8.1c0.2,10.5,0.2,21,0,31.5c-0.1,5.4-3.4,8.3-8.1,8.2c-4.9-0.1-7.5-3.4-7.9-8.9
		c-0.2-2.6,2.5-7.1-3.7-7.2c-8.2-0.1-12.1,1.9-12.1,7.6c-0.2,21.3-1.5,42.8,0.3,64c2,23.7,13.9,42.8,35.2,54.7
		c28.2,15.7,55.8,13.2,81.1-6c15.5-11.7,24.5-28,26.3-47.9c1.9-21.1,0.5-42.2,0.8-63.4c0.1-6.7-8.9-11.8-14.7-8.7
		c-2.1,1.1-1.2,3.3-1.2,5c0,4-0.7,7.6-4.7,9.7c-5.3,2.7-11.1-0.2-11.2-6.1c-0.3-11.2-0.3-22.3,0-33.5c0.1-3.7,2.1-6.8,6.3-7.2
		c4.4-0.4,8.9,0.9,8.8,5.8c-0.2,9,4,9.9,11.9,10.7C489.5,67,497,77.4,497,91c0,17.8,0.2,35.7,0,53.5c-0.3,24.7-9,46.1-26.6,63.4
		c-13.8,13.5-30.5,21.6-49.7,24c-4.1,0.5-3.6,3.1-3.6,5.7c0,35.2,0,70.3,0,105.5c0,7.1-1.4,13.9-4.7,20.1
		c-7.3,13.8-18.8,21.5-34.5,21.6c-33.5,0.3-67,0.2-100.5,0c-3.8,0-5.7,0.9-7.3,4.7c-7.1,16.4-25.8,23.7-42,16.9
		c-15.5-6.5-23-25.1-16.8-41.4c8-21,35.6-26.8,51.5-10.9c3.5,3.5,6.6,7.2,8,11.8c0.8,2.4,2,3.1,4.3,3.1c24.5,0,49-0.1,73.5,0
		c4.1,0,3.7-2.5,3.4-4.9c-2.4-14.9-7.6-28.6-16.9-40.5c-15-19.3-34.6-30.7-58.9-33.8c-3.6-0.5-7.3-0.7-10.9-0.9
		c-5.1-0.2-8.2-3.3-8.2-8.1c0.1-4.8,3.2-7.9,8.4-7.8c24.5,0.2,46.3,7.8,65.3,23.3c18.4,15.1,30.2,34.3,35.6,57.4
		c0.9,3.7,1.3,7.5,1.7,11.3c0.3,2.8,1.6,3.9,4.5,4c17.9,0.6,28.4-9.4,28.4-27.5C401,324.7,401,307.9,401,291.1z M225,377.1
		c0,8.8,7.1,16,15.7,15.9c8.8-0.1,16.4-7.5,16.3-16c0-8.4-7.8-16-16.4-16C232.1,361,225,368.3,225,377.1z"/>
	<path class="st0" d="M192.9,497c-55,0-110,0-165,0c-8.6,0-11-2.3-11-10.9c0-36.7-0.1-73.3,0-110c0.1-28.7,10.8-53.3,31-73.3
		c16.5-16.3,36.6-26.2,59.9-29c4.1-0.5,8.3-0.9,12.4-0.8c5.5,0.1,8.7,3.2,8.6,8.2c-0.1,4.7-3.2,7.7-8.5,7.8
		c-25.4,0.5-47,9.7-64.3,28.4c-12.5,13.5-20.3,29.5-22.2,48c-2.2,21.4-0.4,42.9-1,64.4c-0.1,2.3,0.7,3.3,3.2,3.3
		c11.2-0.1,22.3-0.1,33.5,0c2.7,0,3.4-1.1,3.4-3.6c-0.1-6.5-0.1-13,0-19.5c0.1-5.7,2.9-8.9,7.8-9c5.1-0.1,8.1,3.2,8.2,9.1
		c0,21.8,0.1,43.7-0.1,65.5c0,3.9,0.7,5.5,5.1,5.5c66-0.1,132-0.1,198,0c4.4,0,5.1-1.5,5.1-5.5c-0.2-21.7,0-43.3-0.1-65
		c0-4.7,1.4-8.3,6.2-9.5c5.3-1.4,9.6,2,9.7,7.7c0.2,6.7,0.1,13.3,0,20c-0.1,2.8,0.5,4.3,3.8,4.2c10.8-0.2,21.7-0.2,32.5,0
		c3.3,0.1,3.9-1.4,3.8-4.2c-0.1-6.3-0.1-12.7,0-19c0.1-5.7,3-8.8,7.9-8.9c5,0,8,3.2,8.1,8.7c0.1,26.2,0.1,52.3,0,78.5
		c0,6.2-3.1,8.8-10.1,8.8C303.6,497,248.3,497,192.9,497z M53.1,481c5.3,0,10.7-0.1,16,0c2.6,0.1,4-0.5,3.9-3.5
		c-0.2-8.3-0.1-16.7,0-25c0-2.5-0.7-3.6-3.4-3.5c-11,0.1-22,0.1-33,0c-2.9,0-3.7,1-3.7,3.8c0.1,8.2,0.2,16.3,0,24.5
		c-0.1,3.3,1.4,3.9,4.2,3.8C42.5,480.9,47.8,481,53.1,481z M333.3,481c5.3,0,10.7-0.1,16,0c2.8,0.1,3.8-0.9,3.8-3.7
		c-0.1-8.2-0.1-16.3,0-24.5c0-2.6-0.6-3.9-3.6-3.9c-11,0.1-22,0.1-33,0c-2.6,0-3.6,0.8-3.5,3.4c0.1,8.3,0.1,16.7,0,25
		c-0.1,2.9,1.1,3.7,3.8,3.6C322.3,480.9,327.8,481,333.3,481z"/>
</g>
</svg>
