<?xml version="1.0" encoding="utf-8"?>
<!-- Generator: Adobe Illustrator 21.0.2, SVG Export Plug-In . SVG Version: 6.00 Build 0)  -->
<svg version="1.1" id="Layer_1" xmlns="http://www.w3.org/2000/svg" xmlns:xlink="http://www.w3.org/1999/xlink" x="0px" y="0px"
	 viewBox="0 0 299.1 292.7" style="enable-background:new 0 0 299.1 292.7;" xml:space="preserve">
<style type="text/css">
	.st0{fill:#26282B;}
</style>
<g>
	<path class="st0" d="M6.6,18.9L6.6,18.9c0-8.7,7-15.7,15.7-15.7h256.1c8.7,0,15.7,7,15.7,15.7v0c0,8.7-7,15.7-15.7,15.7H22.4
		C13.7,34.7,6.6,27.6,6.6,18.9z"/>
	<path class="st0" d="M6.7,146.9L6.7,146.9c0-8.7,7-15.7,15.7-15.7h256.1c8.7,0,15.7,7,15.7,15.7v0c0,8.7-7,15.7-15.7,15.7H22.4
		C13.7,162.6,6.7,155.6,6.7,146.9z"/>
	<path class="st0" d="M182.4,274.9L182.4,274.9c0,8.7-7.1,15.8-15.8,15.8H22.5c-8.7,0-15.8-7.1-15.8-15.8v0
		c0-8.7,7.1-15.8,15.8-15.8h144.1C175.3,259.2,182.4,266.2,182.4,274.9z"/>
</g>
</svg>
