<?xml version="1.0" encoding="utf-8"?>
<!-- Generator: Adobe Illustrator 21.0.2, SVG Export Plug-In . SVG Version: 6.00 Build 0)  -->
<svg version="1.1" id="Layer_1" xmlns="http://www.w3.org/2000/svg" xmlns:xlink="http://www.w3.org/1999/xlink" x="0px" y="0px"
	 viewBox="0 0 512 512" style="enable-background:new 0 0 512 512;" xml:space="preserve">
<style type="text/css">
	.st0{fill:#7579E7;}
</style>
<g>
	<path class="st0" d="M1,378c3.7-8.2,9.2-14.1,18.5-15.6c2.8-0.5,2.5-2.6,2.5-4.6c0-11.3,0.5-22.7-0.1-34
		c-0.6-10.1,9.8-20.2,19.9-20c25.8,0.5,51.7,0.1,77.5,0.2c4.5,0,7.5-1,10.5-4.8c12.4-15.8,29.7-23.6,48.8-28c4.5-1,5.9-2.8,5.7-7.3
		c-0.3-10-0.1-20-0.1-30c0-4,2.1-6.6,5.9-7.8c3.5-1,6.1,0.6,8.1,3.4c1.2,1.6,1,3.5,1,5.3c0,8.8,0.1,17.7,0,26.5
		c-0.1,3.6,0.5,4.9,4.8,4c11.5-2.4,23.1-4.3,34.9-5.5c4.9-0.5,7.3-3.2,7.4-8.2c0-10.7,0-21.3,0-32c0-2.1-0.3-3.8-2.1-5.3
		c-15.9-12.7-27.8-28.1-32-48.5c-0.7-3.1-2.9-3-5.3-3.1c-7.5-0.1-7.5-0.1-7.5,7.5c0,9,0,18,0,27c0,5.1-3.2,8.6-7.7,8.5
		c-4.2-0.1-7.3-3.5-7.3-8.5c0-36-1.3-72,0.3-108c2-43.4,34-78.3,75.5-86.6c2.7-0.5,5.7-0.1,8.1-1.9c15.7,0,31.3,0,47,0
		c0.7,0.3,1.4,0.8,2.2,0.9C338,4.2,355.8,13,370.6,27.4C391,47,400,71.5,400,99.6c-0.1,52.5,0,104.9,0,157.4
		c0,12.8,0,12.7,12.3,16.1c37,10,57.9,38,58.6,74.3c0.1,4.6-2,10.6,0.8,13.6c3,3.3,9.2,1.3,13.9,1.1c12.8-0.7,22.3,3.8,27.4,16
		c0,8,0,16,0,24c-2.1,3.5-2.9,8.4-6.8,10.1c-8.3,3.7-7.5,10.6-7.2,17.6c0.1,1.5,0,3,0,4.5c-0.1,5-3,8.6-7,8.7
		c-4.3,0.1-7.8-3.6-8-8.6c-0.2-3.8-0.3-7.7,0-11.5c0.3-3.8-1.2-4.8-4.8-4.8c-148.1,0.1-296.3,0.1-444.4,0c-4,0-5.1,1.2-5,5.1
		c0.2,21.8,0.1,43.7,0.1,65.5c0,8.4,1,9.4,9.5,9.4c98.1,0,196.3,0,294.4,0c47.3,0,94.6,0,142,0c6.7,0,8.2-1.5,8.2-8.2
		c0-6.2-0.1-12.3,0-18.5c0.1-5.3,3.2-8.4,7.9-8.3c4.8,0.2,7,2.7,7.1,8.3c0.1,7.2-0.1,14.3,0,21.5c0.1,4.3-1.4,8-3.6,11.7
		c-2.9,4.8-7.9,6.2-12.4,8.6c-150.7,0-301.3,0-452,0c-12.4-4.5-16.7-13.3-16.3-26.3c0.7-21.6,0.2-43.3,0.2-64.9
		c0-2.1,0.7-4.4-1.9-5.7C6.6,413,3.1,407.5,1,401C1,393.3,1,385.7,1,378z M245,24c-9.7,3.6-17.7,9.9-24.6,17.4
		C206.1,57.1,199,75.8,199,97.2c0,6.9,0,7,7.1,6.8c2.2,0,4.6,0.7,5.9-2.3c3.9-8.8,11.4-12,20.4-12.6c8.6-0.6,14.6-5.6,16.7-13.8
		c1.1-4,0.8-7.7-0.7-11.6C243.7,50.8,243,37.5,245,24c0.1,0,0.3,0,0.3-0.1c0.1,0,0.1-0.2,0.1-0.3C245.3,23.8,245.1,23.9,245,24z
		 M256.9,403.1c66.3,0,132.6,0,198.9,0c11.7,0,23.3,0,35,0c4.9,0,7-2.1,7.2-6.9c0.1-3.8,0-7.7,0-11.5c0.1-4.8-2.8-6.8-7-7.5
		c-1.3-0.2-2.7-0.1-4-0.1c-153.3,0-306.5,0-459.8,0c-1.3,0-2.7-0.1-4,0c-4.6,0.4-7.1,3.2-7.2,7.9c0,2.8,0,5.7,0,8.5
		c0,8.3,1.3,9.6,9.5,9.6C102.6,403.1,179.8,403.1,256.9,403.1z M359,137.7c0-4.8-0.2-9.7,0.1-14.5c0.2-3.3-1-4.3-4.3-4.2
		c-10.5,0.2-21,0.2-31.5,0c-10.6-0.1-20.7-2.7-30.3-7c-11.3-5-20.9-12.3-29-21.6c-1.7-2-3.2-3.4-5.4-0.3
		c-6.2,8.8-14.6,13.6-25.6,14.1c-5.9,0.3-8,2.9-8,9.1c0,12.7,0,25.3,0.1,38c0.1,6.7,1.3,13.2,3.8,19.4c8.8,22.6,26,36.3,47.7,45.4
		c5.4,2.3,11.2,4.6,16.8,3.5c25.8-4.8,45.4-18.6,58.3-41.7C358.7,165.3,359.5,151.6,359,137.7z M323,242.6c0-4-0.2-8,0.1-12
		c0.3-4.2-0.7-4.7-4.6-2.9c-12.4,5.7-25.1,9.7-39,5.2c-4.7-1.5-9.7-2.7-14-5.2c-4-2.4-4.6-0.8-4.5,3c0.2,7,0.1,14,0.1,21
		c0,13.7-7.7,22-21.3,23.4c-6.7,0.7-13.4,2-20.2,3c-1,0.1-1.9,0.3-2.4,1.4c-1.6,3.5,0.3,14.9,3.1,17.3
		c18.1,15.2,38.9,24.4,62.4,26.2c27.5,2.1,52.5-5,75.1-21.4c7.1-5.1,11-10.5,9.4-19.3c0-0.2,0-0.3,0-0.5c0.2-2.4-0.7-3.5-3.3-3.8
		c-6.9-0.8-13.8-2-20.7-2.9c-12.8-1.6-20.1-9.8-20.1-22.9C323,248.9,323,245.7,323,242.6z M348.9,104c12,0,21.8-0.1,31.7,0.1
		c3.1,0.1,4.7-0.8,4.3-4.2c-0.4-3.3-0.7-6.6-0.8-9.9c-1.5-31.8-24-60-54-69.9c-17.8-5.9-36.2-4.4-54.4-3.7
		c-8.7,0.4-13.9,6.3-15.9,14.9c-2.6,11.6-0.1,22.4,5,32.8c10.5,21.4,27.1,34.9,50.9,38.9C327.5,105.1,339.3,103.4,348.9,104z
		 M291.7,362.1c23.5,0,47-0.1,70.5,0.1c4,0,5.1-1.2,5-5.1c-0.2-12.7-0.1-25.3-0.1-38c0-1.5,0.9-3.7-0.8-4.5
		c-1.4-0.7-2.6,1.1-3.8,1.9c-17.2,12.1-36.5,19.3-57.3,21.3c-30.3,2.8-58.5-4-83.8-21.3c-1.1-0.8-2.1-2.8-3.7-1.8
		c-1.3,0.9-0.6,2.8-0.6,4.2c0,12.7,0.1,25.3-0.1,38c-0.1,4.2,1.3,5.3,5.4,5.2C245.4,362,268.5,362.1,291.7,362.1z M102.8,362.1
		c20.5,0,41,0,61.5,0c2.8,0,4.8-0.1,4.7-3.9c-0.2-10.8,0-21.7-0.1-32.5c-0.1-5-2.1-6.8-7.1-6.8c-39.5,0-79,0-118.5-0.1
		c-4.8,0-6.5,2-6.4,6.6c0.2,10.3,0.3,20.7,0,31c-0.1,4.3,0.9,5.7,5.5,5.7C62.5,361.9,82.7,362.1,102.8,362.1z M382,322
		c0,12,0.1,24,0,36c0,2.9,0.7,4.2,3.9,4.1c21.8-0.1,43.6-0.1,65.5,0c3.3,0,3.9-1.4,3.8-4.2c-0.1-6,0.3-12-0.2-18
		c-1.1-15.5-7.9-28.5-19.6-38.5c-14.2-12.2-32.1-15.4-49.6-19.3c-3.3-0.8-3.9,1.2-3.8,4C382.1,298,382,310,382,322z M384.9,213.7
		c0-14.2,0-28.3,0-42.5c0-8.7,0-8.6-8.6-8.3c-2.5,0.1-3.8,0.7-4.4,3.5c-4.6,19.1-15.1,34.5-30.4,46.8c-1.9,1.5-3.6,3.1-3.6,6.1
		c0.2,11.2,0.1,22.3,0.1,33.5c0,4.4,2.3,6.6,6.6,7.2c11.5,1.6,23,3.4,34.4,5.2c6,1,5.9,1.1,5.9-5
		C384.9,244.7,384.9,229.2,384.9,213.7z M145.7,303.9c6.3,0,11.3,0.3,16.3-0.1c13.5-1,22.1,9.8,22,22.1c-0.1,10.6,0,21.3-0.1,32
		c0,2.9,0.7,4.4,3.9,4.2c3.5-0.2,7-0.2,10.5,0c2.8,0.1,3.7-1,3.7-3.8c-0.1-24.6-0.1-49.3,0-73.9c0-2.3-0.3-3.2-3.1-2.6
		c-12.7,2.7-25.2,5.7-37.2,10.9C156,295.2,151,298.6,145.7,303.9z M210,134C210,134,210,134,210,134c0-3.8,0-7.7,0-11.5
		c0-1.3,0.3-2.6-1.4-3.3c-3.2-1.3-8.4,0.8-9,4.2c-1,6.7-1.2,13.6,0.1,20.3c0.7,3.9,4.5,4.6,8,4.2c3.9-0.4,2.1-3.5,2.3-5.5
		C210.2,139.6,210,136.8,210,134z M374,133.3c0,3.3-0.1,6.7,0,10c0.1,1.5-0.9,3.7,1.2,4.4c2,0.7,4.2,0.7,6.2-0.6
		c5.2-3.5,5.2-23.6,0-27.1c-2-1.3-4.2-1.3-6.2-0.6c-2,0.7-1.1,2.9-1.1,4.4C373.9,127,374,130.1,374,133.3z"/>
	<path class="st0" d="M103,333.9c11.8,0,23.6,0,35.4,0c5.7,0,9.1,2.6,9.2,6.9c0.1,4.5-4,8-9.5,8c-23.5,0-46.9,0-70.4,0
		c-5.8,0-8.9-2.9-8.8-7.8c0.1-5,2.6-7.2,8.6-7.2C79.4,333.9,91.2,333.9,103,333.9z"/>
	<path class="st0" d="M418.7,349c-3.2,0-6.3,0.2-9.5,0c-4.5-0.3-7.4-3.5-7.3-7.7c0.1-4.7,2.5-7.1,7.6-7.2c6.3-0.1,12.6-0.1,18.9,0
		c4.3,0.1,7.4,3.1,7.5,7c0.1,4-2.7,7.5-6.8,7.9C425.7,349.2,422.2,348.9,418.7,349C418.7,348.9,418.7,348.9,418.7,349z"/>
</g>
</svg>
