<?xml version="1.0" encoding="utf-8"?>
<!-- Generator: Adobe Illustrator 21.0.2, SVG Export Plug-In . SVG Version: 6.00 Build 0)  -->
<svg version="1.1" id="Layer_1" xmlns="http://www.w3.org/2000/svg" xmlns:xlink="http://www.w3.org/1999/xlink" x="0px" y="0px"
	 viewBox="0 0 520.9 504.1" style="enable-background:new 0 0 520.9 504.1;" xml:space="preserve">
<style type="text/css">
	.st0{fill:#7579E7;}
	.st1{fill:#FDFEFE;}
</style>
<g>
	<path class="st0" d="M521.9,304c-2.8,8.5-5,17.2-10.3,24.6c-10.3,14.3-23.9,23-41.6,25.6c-28.5,4.1-56.7-14.4-65.1-41.9
		c-9.8-32.2,9.9-67.4,42.7-75.1c5.5-1.3,6.4-3.5,6.4-8.6c-0.1-16.4-2.7-32-12.5-45.8c-17.5-24.9-51.4-30.4-75.2-11.6
		C351,183.2,343,199.3,343,218.7c-0.3,54.7-0.2,109.3,0,164c0.1,29.1-7.7,55.6-26.2,78.3c-18.1,22.1-41.1,36.1-70,39.1
		c-35.3,3.6-64.3-9.1-87.8-34.7c-15.4-16.8-24.5-37-28.1-59.6c-1.5-9.7-2.2-19.5-1.9-29.3c0.1-2.6-0.4-4.2-3.3-5.1
		c-14.4-4.2-21.5-13.7-21.8-28.8c-0.1-7.2-0.3-14.3,0-21.5c0.2-3.8-1.3-5.2-4.7-6.1c-20.7-6-39-16.4-54.2-31.5
		c-19.1-18.9-31.3-41.6-34.3-68.7c-0.1-0.6-0.6-1.1-0.9-1.7c0-9.7,0-19.3,0-29c4,0,8-0.2,12,0.1c3.9,0.3,5.1-0.9,5.1-5
		c-0.2-21.7-0.1-43.3-0.1-65c0-13.7,0-27.3,0-41C27,53.6,39.8,37,58.5,32c2.6-0.7,4.1-1.9,5.3-4.5c5-10.2,16.8-16.2,26.8-14
		c13,2.8,21.3,11.9,22.1,24.2c0.7,10.6-6.6,21.8-16.7,25.4c-11.5,4.1-23.5,0.5-30.2-9c-4.3-6.2-4.5-6.2-10.7-2
		C47.6,57.2,44.1,64.8,44,73.7c-0.2,35.3,0,70.7-0.1,106c0,3.2,0.8,4.5,4.2,4.3c5.5-0.2,11,0.2,16.5-0.1c4.1-0.2,5.5,0.9,5.4,5.2
		c-0.2,9.3-0.6,18.6,1.8,27.8c7,27.5,28.8,46.5,57.1,51.1c20.9,3.4,40.5-0.4,57.8-12.9c16.1-11.6,25-27.5,27.4-47.2
		c0.8-6.7,0.7-13.3,0.7-19.9c0-3.1,1.1-3.9,4.1-4c4.2-0.1,9.9,2.1,12.3-1.1c2-2.7,0.7-8,0.7-12.2c0-16,0.4-32-0.1-48
		c-0.6-17.1-0.4-34.3-0.8-51.4c-0.2-9.7-5.7-16.3-13.9-21c-3-1.8-4.6-0.4-6.3,2.3c-5.5,8.6-13.6,12.8-23.6,11.9
		c-11.6-1-19.2-7.6-22.5-18.9c-4.2-14.3,5.9-29.7,20.8-31.6c11.5-1.5,21.7,3.7,26.7,14c1.1,2.2,2.4,3.2,4.6,4
		c21.2,7,32.1,22.1,32.1,44.5c0,34,0.2,68,0,102c0,4.7,1.4,5.8,5.9,5.7c11.2-0.3,10.9-0.1,11.3,11.1c0.9,28.6-7.2,54.1-24.9,76.5
		c-16.3,20.6-37.1,34.6-62.1,42.2c-5.6,1.7-7.4,4.1-7.2,9.9c0.3,8.1,1,16.3-0.7,24.4c-2.4,11.9-7.9,20.8-20.8,23.1
		c-2.5,0.4-3.4,1.7-3.5,4.4c-0.7,18.7,0.9,37,9.3,54c15.5,31.3,39.5,50.8,75.4,53.4c39.4,2.8,72.1-22.8,86.4-57.1
		c5.7-13.7,8-28.1,8-42.8c0.1-54.8,0.2-109.6,0-164.5c-0.1-32.2,21.4-64.2,53.5-73.3c22.4-6.4,43.3-2.2,61.6,12.3
		c21,16.7,30,39.1,29.9,65.6c0,3.8-1.1,8.2,0.5,11.3c1.6,3.3,6.8,2.4,10.3,3.8c21.3,8.1,34.3,23.3,39.2,45.5c0.2,0.8,0.2,1.6,1,2.1
		C521.9,292,521.9,298,521.9,304z M137.9,303.2c5.8-0.3,11.6-0.1,17.4-1.1c40.3-6.8,69.9-27.8,86.7-65.6c4.4-9.9,6.3-20.6,6.8-31.5
		c0.1-1.4,0.7-3.6-1.3-3.8c-4.8-0.3-9.8-0.8-14.4,0.2c-2.7,0.6-0.7,4.8-1.6,7.2c-0.4,0.9-0.5,1.9-0.6,2.9
		c-2.3,17.9-9.5,33.7-21.9,46.6c-22.2,23-49.7,30.9-80.9,26.9c-41.9-5.3-73.8-39.7-75.2-80.3c-0.1-2.7-0.9-3.9-3.8-3.8
		c-5.5,0.2-11,0.4-16.5-0.1c-5.2-0.5-6.2,1.7-5.8,6.3c1.8,21,9.1,39.9,22.7,55.9C72.7,290,102.5,303,137.9,303.2z M419.8,294.7
		c-1.5,20.6,16.8,42.9,41.9,42.8c25-0.1,42.9-19.2,43.1-42.5c0.2-23.6-19.2-43.1-42.8-42.9C438.6,252.3,418.8,271.9,419.8,294.7z
		 M138.2,320c-4.7,0-9.3,0.1-14,0c-2.2,0-3.4,0.5-3.4,3c0.1,6.6-0.3,13.3,0.2,19.9c0.7,9.2,4.3,12,13.5,12c3,0,6,0,9,0
		c5.9-0.1,8.4-1.8,10.1-7.5c2.5-8.3,0.8-16.8,1.2-25.3c0.1-2.1-1.6-2.2-3.1-2.2C147.2,320,142.7,320,138.2,320z M188.9,47.1
		c5.1,0,8.8-3.4,8.9-8.1c0.1-4.7-4.3-9-9-8.9c-4.7,0.1-8,3.9-8,8.9C180.9,44,184,47.1,188.9,47.1z M94.9,39c0-4.5-4.2-9-8.4-8.8
		C82,30.3,78,34.4,78,39c0,4.7,3.8,8.1,8.9,8.1C91.9,47,94.9,43.9,94.9,39z"/>
	<path class="st1" d="M138.2,320c4.5,0,9,0,13.5,0c1.6,0,3.2,0,3.1,2.2c-0.3,8.4,1.3,17-1.2,25.3c-1.7,5.8-4.2,7.5-10.1,7.5
		c-3,0-6,0-9,0c-9.2,0-12.8-2.9-13.5-12c-0.5-6.6-0.1-13.3-0.2-19.9c0-2.5,1.2-3.1,3.4-3C128.9,320,133.6,320,138.2,320z"/>
	<path class="st0" d="M461.9,320.1c-14.6,0-25.2-10.8-25.1-25.7c0-13.9,11.4-25.2,25.3-25.4c13.6-0.2,25.8,12,25.7,25.9
		C487.7,309.5,475.5,321.1,461.9,320.1z M462,303.1c5.1,0,8.8-3.6,8.8-8.2c-0.1-4.6-4.1-8.6-8.7-8.7c-4.1-0.1-8.3,4.5-8.2,9
		C453.9,300,457,303.1,462,303.1z"/>
</g>
</svg>
